<svg xmlns="http://www.w3.org/2000/svg" xmlns:xlink="http://www.w3.org/1999/xlink" viewBox="0 0 1920 600"><defs><style>.a{clip-path:url(#a);}.b{fill:none;stroke:#888585;stroke-miterlimit:10;opacity:0.2;}.c{fill:#888585;opacity:0.1;}.d{fill:#ccc;opacity:0.06;}</style><clipPath id="a"><rect width="1920" height="600" transform="translate(628.5 958)"/></clipPath></defs><g class="a" transform="translate(-628.5 -958)"><path class="b" d="M2475,906.6l77,59.3-89.9,37-89.9,37,12.9-96.3,12.9-96.3Z"/><path class="b" d="M675.8,1186.1l77,59.3-89.9,37L573,1319.5l12.9-96.3,12.8-96.4Z"/><path class="b" d="M2305.7,1143.2l155.1-20.2-60.1,144.3-60.1,144.3-95-124.2-95-124.1Z"/><path class="b" d="M1238.6,1141l78.4-57.5,10.6,96.7,10.5,96.6-88.9-39.1-88.9-39.2Z"/><path class="b" d="M1435.5,985.4l-73.3-138.2,156.2,5.6,156.2,5.7L1591.7,991l-82.9,132.5Z"/><path class="b" d="M1862.4,855.2l475.1-61.7-184.2,442-184.1,441.9-291-380.3L1387.3,916.8Z"/><path class="b" d="M1240,1157.6l357,397.6-523.1,110.1-523.1,110,166.1-507.7L883.1,760Z"/><path class="b" d="M781.8,944.1l94.2,62.4-101.2,50.3-101.1,50.4,6.9-112.7,6.9-112.7Z"/><path class="b" d="M2031.3,936.9l155.1-20.1-60.1,144.3-60.1,144.2-95-124.1-95-124.1Z"/><path class="b" d="M1048.5,803.2l155-20.1-60.1,144.2-60.1,144.3-95-124.2L893.4,823.3Z"/><path class="b" d="M1241.7,1007.3l302.2-39.2-117.1,281.1-117.1,281.1-185.1-241.9-185-241.8Z"/><path class="b" d="M1708.4,1399l22.1-303.7,252.1,170.9,252.2,170.9-274.2,132.8-274.2,132.7Z"/><path class="b" d="M929,1638.5,718.1,1499.1l226.2-112.8,226.2-112.9-15.3,252.2-15.3,252.2Z"/><path class="b" d="M1999.8,1375.1l34.9,6.7-23.3,26.8-23.3,26.8-11.6-33.5-11.5-33.6Z"/><path class="c" d="M2129.1,1310.8l20.7,4-13.8,15.9-13.9,16-6.9-20-6.9-20Z"/><path class="c" d="M983.4,1068.6l20.5-5-5.9,20.3-5.9,20.3-14.6-15.3-14.7-15.2Z"/><path class="d" d="M1836.7,1097l11.8,23.9-26.6-1.8-26.6-1.8,14.8-22.1,14.9-22.1Z"/><path class="d" d="M2125.8,873.4l21,11.4-20.4,12.4L2106,909.7l-.6-23.9-.6-23.9Z"/><path class="d" d="M2109.7,1580.3l-13.9,27.9-17.2-26-17.2-26.1,31.1-1.9,31.2-1.9Z"/><path class="d" d="M1258.6,787.4l41.2.7-21.2,35.3-21.1,35.3-20.1-35.9-20-36Z"/><path class="c" d="M1650.9,1471.8l-11.3-17.4,20.7-1.1,20.7-1-9.4,18.4-9.5,18.5Z"/><path class="c" d="M838.4,856.7l-6.1-9.4,11.2-.5,11.1-.6-5.1,9.9-5.1,9.9Z"/><path class="c" d="M1530.1,1194.2l21.6-16.7,3.7,27.1,3.6,27-25.2-10.4-25.3-10.3Z"/><path class="c" d="M2424.1,1110.1l31-23.9,5.2,38.8,5.2,38.7-36.1-14.8-36.2-14.9Z"/><path class="c" d="M786.4,1493.5l38.4,7.5-25.6,29.5L773.5,1560l-12.7-37L748,1486.1Z"/><path class="d" d="M1039.2,1292.2l55.2-14.1L1079,1333l-15.4,54.8-39.8-40.8-39.9-40.7Z"/><path class="d" d="M2043.5,1236.5l26.9-6.8-7.5,26.6-7.5,26.7-19.4-19.8-19.3-19.8Z"/><path class="d" d="M696.5,1170.5l17.7,12.3-19.5,9.2-19.4,9.2,1.7-21.5,1.7-21.4Z"/><path class="d" d="M2305.4,1496.1l-38.4-7.5,25.6-29.5,25.7-29.5,12.7,37,12.8,36.9Z"/><path class="c" d="M2536.9,796.7l40.9-24.8,1,47.8,1.1,47.8-42-23-41.9-23Z"/><path class="b" d="M2499.3,1371.9l-86.8-46.4,83.6-51.9,83.5-51.8,3.2,98.2,3.2,98.2Z"/><path class="b" d="M989,1223.7l30.9-17.5-.2,35.4-.3,35.5-30.6-17.9-30.6-17.9Z"/></g></svg>