<svg xmlns="http://www.w3.org/2000/svg" xmlns:xlink="http://www.w3.org/1999/xlink" viewBox="0 0 1920 690"><defs><style>.a{clip-path:url(#a);}.b{clip-path:url(#b);}.c,.g{fill:none;}.d{clip-path:url(#c);}.e{fill:url(#d);}.f{clip-path:url(#e);}.g{stroke:#ccc;stroke-miterlimit:10;opacity:0.35;}.h{fill:#b3b3b3;opacity:0.2;}.i{fill:#ccc;opacity:0.1;}.j{clip-path:url(#g);}</style><clipPath id="a"><rect width="1920" height="690" transform="translate(172.3 338.1)"/></clipPath><clipPath id="b"><rect width="1920" height="750" transform="translate(1.5 -0.6)"/></clipPath><clipPath id="c"><rect width="1920" height="750" transform="translate(172.3 338.1)"/></clipPath><linearGradient id="d" x1="0.5" y1="-0.017" x2="0.5" y2="0.737" gradientUnits="objectBoundingBox"><stop offset="0" stop-color="#e6e6e6"/><stop offset="1" stop-color="#fff"/></linearGradient><clipPath id="e"><rect width="1920" height="750"/></clipPath><clipPath id="g"><rect width="1920" height="750" transform="translate(172.3 74.5)"/></clipPath></defs><g transform="translate(-172.3 -338.1)"><g class="a"><g class="b" transform="translate(170.8 338.7)"><rect class="c" width="2550" height="1440"/></g><g class="d"><rect class="e" width="1921.5" height="689.4" transform="translate(170.8 338.7)"/></g><g class="f" transform="translate(172.3 338.1)"><rect class="c" width="1920" height="750"/></g><g class="d"><path class="g" d="M245.8,872.1l-77-59.3,89.9-37,89.9-37.1L335.7,835l-12.8,96.4Z"/><path class="g" d="M2045.1,592.5,1968,533.3l89.9-37.1,89.9-37L2135,555.5l-12.9,96.3Z"/><path class="g" d="M415.1,635.5l-155,20.1,60.1-144.2,60.1-144.3,94.9,124.2,95,124.1Z"/><path class="g" d="M1482.2,637.7l-78.4,57.5-10.5-96.7-10.6-96.6,89,39.1,88.9,39.2Z"/><path class="g" d="M1285.3,793.3l73.3,138.2-156.2-5.7-156.1-5.6,82.9-132.5,82.9-132.5Z"/><path class="g" d="M858.5,923.5,383.4,985.1,567.5,543.2,751.6,101.3l291,380.3,291,380.3Z"/><path class="g" d="M1480.8,621.1l-357-397.6,523.1-110.1L2170,3.3,2003.9,511l-166.2,507.7Z"/><path class="g" d="M1939.1,834.6l-94.3-62.4L1946,721.8l101.2-50.3-7,112.7-6.9,112.7Z"/><path class="g" d="M689.5,841.7l-155,20.2,60.1-144.3,60.1-144.3,94.9,124.2,95,124.1Z"/><path class="g" d="M1672.4,975.5l-155.1,20.1,60.1-144.2,60.1-144.3,95,124.1,95,124.2Z"/><path class="g" d="M1479.1,771.3l-302.2,39.2,117.1-281,117.1-281.1,185.1,241.9,185.1,241.8Z"/><path class="g" d="M1012.4,379.7l-22,303.7L738.2,512.5,486,341.6,760.2,208.8,1034.4,76Z"/><path class="g" d="M1791.9,140.2l210.9,139.4L1776.6,392.4,1550.3,505.2l15.3-252.1L1580.9.9Z"/><path class="g" d="M721,403.6l-34.8-6.7,23.2-26.8,23.3-26.8,11.6,33.5,11.6,33.6Z"/><path class="h" d="M591.7,467.9l-20.7-4L584.9,448l13.8-16,6.9,20,6.9,19.9Z"/><path class="h" d="M1737.5,710l-20.6,5.1,5.9-20.3,6-20.3,14.6,15.3L1758,705Z"/><path class="i" d="M884.1,681.7l-11.7-23.9,26.5,1.8,26.6,1.7-14.8,22.2-14.8,22.1Z"/><path class="i" d="M595,905.3l-21-11.4,20.4-12.5L614.8,869l.6,23.8.6,23.9Z"/><path class="i" d="M611.1,198.4,625,170.5l17.2,26,17.3,26.1-31.2,1.9-31.2,1.8Z"/><path class="i" d="M1462.2,991.2l-41.2-.6,21.2-35.4,21.2-35.3,20,36,20,36Z"/><path class="h" d="M1069.9,306.9l11.3,17.4-20.7,1.1-20.7,1,9.4-18.4,9.5-18.5Z"/><path class="h" d="M1882.5,922l6,9.4-11.1.5-11.1.6,5-9.9,5.1-9.9Z"/><path class="h" d="M1190.7,584.5l-21.6,16.7-3.7-27.1-3.6-27,25.3,10.3,25.2,10.4Z"/><path class="h" d="M296.7,668.5l-30.9,23.9-5.3-38.7L255.3,615l36.2,14.8,36.2,14.9Z"/><path class="h" d="M1934.4,285.2l-38.4-7.5,25.7-29.5,25.6-29.5,12.8,37,12.7,36.9Z"/><path class="i" d="M1681.7,486.5l-55.2,14.1,15.4-54.9,15.3-54.8,39.9,40.7,39.8,40.8Z"/><path class="i" d="M677.3,542.1,650.5,549l7.5-26.7,7.4-26.6,19.4,19.8,19.4,19.8Z"/><path class="i" d="M2024.4,608.2l-17.8-12.3,19.5-9.2,19.4-9.2-1.7,21.4-1.7,21.5Z"/><path class="i" d="M415.5,282.6l38.3,7.5-25.6,29.5-25.6,29.5-12.8-37-12.7-36.9Z"/><path class="h" d="M183.9,982,143,1006.8,142,959l-1.1-47.8,42,23,41.9,23Z"/><path class="g" d="M221.6,406.8l86.7,46.4L224.8,505l-83.5,51.9L138,458.7l-3.2-98.2Z"/><path class="g" d="M1731.8,555,1701,572.5l.2-35.5.2-35.4,30.6,17.9,30.7,17.9Z"/></g><g class="j" transform="translate(0 263.6)"><rect class="c" width="2211.5" height="920.7"/></g></g></g></svg>