<svg xmlns="http://www.w3.org/2000/svg" xmlns:xlink="http://www.w3.org/1999/xlink" viewBox="0 0 26.353 30"><defs><style>.a{fill:none;}.b{fill:#5b8bc9;}.c{fill:#fcfefe;}.d{fill:#749bd1;}.e{clip-path:url(#a);}</style><clipPath id="a"><path class="a" d="M0,15.464H26.352v-30H0Z" transform="translate(0 14.536)"/></clipPath></defs><g transform="translate(0 0.004)"><path class="b" d="M13.58,1.242V28.829l-.291-.173c-1.1-.974-2.2-1.946-3.3-2.929S7.845,23.775,6.772,22.8l-.06-.056v.114c.173.627.341,1.257.518,1.884s.177.619-.483.619c-5.345,0-10.694-.041-16.042.021a3.284,3.284,0,0,1-3.471-3.451c.06-6.549.023-13.1.023-19.652,0-.2,0-.4.017-.6A3,3,0,0,1-10.7-1l.4-.169H11.174a5.114,5.114,0,0,1,1.581.97,6.29,6.29,0,0,1,.826,1.438M-4.08,6.952c.687-.429,1.5-.594,2.27-1l-.177-.087-.2-.006A7.766,7.766,0,0,0-5.974,7.328l-.268.355A20.4,20.4,0,0,0-8.281,15.79a1.039,1.039,0,0,0,.285.77,5.825,5.825,0,0,0,3.521,1.847,1.115,1.115,0,0,0,1.257-.516c.458-.646.493-.623-.221-.943a3.76,3.76,0,0,1-1.682-1.319A11.411,11.411,0,0,0,6.031,15.8a3.33,3.33,0,0,1-1.471,1.143c-.8.378-.813.378-.233,1.067.161.194.258.477.6.45A5.873,5.873,0,0,0,8.972,16.6a1.133,1.133,0,0,0,.312-.861A21.3,21.3,0,0,0,7.624,8.45,3.157,3.157,0,0,0,5.965,6.692a8.044,8.044,0,0,0-2.718-.826C3.086,5.85,2.855,5.8,2.813,6s.206.173.33.221a6.3,6.3,0,0,1,1.917.929l-.008.2c-.392-.132-.78-.287-1.176-.4a13.194,13.194,0,0,0-7.952.3Z" transform="translate(12.766 1.167)"/><g transform="translate(4.484 7.016)"><path class="c" d="M2.168.72a13.21,13.21,0,0,1,7.952-.3c.4.114.782.266,1.176.4.31.138.621.281.931.419A1.27,1.27,0,0,0,11.3.623,6.348,6.348,0,0,0,9.388-.306c-.124-.05-.374-.027-.33-.221s.272-.149.433-.132a8.076,8.076,0,0,1,2.716.823,3.164,3.164,0,0,1,1.661,1.76,21.3,21.3,0,0,1,1.659,7.287,1.127,1.127,0,0,1-.314.861,5.874,5.874,0,0,1-4.041,1.86c-.347.027-.444-.256-.6-.45-.578-.689-.57-.689.235-1.067a3.314,3.314,0,0,0,1.469-1.143A11.407,11.407,0,0,1,1.122,9.1,3.737,3.737,0,0,0,2.8,10.422c.712.318.679.3.221.943a1.115,1.115,0,0,1-1.257.516,5.825,5.825,0,0,1-3.521-1.847,1.039,1.039,0,0,1-.285-.77A20.4,20.4,0,0,1,0,1.158L.27.8A7.738,7.738,0,0,1,4.057-.665l.2.006.177.087c-.77.4-1.583.568-2.27,1a3.908,3.908,0,0,0-1.129.681A2.723,2.723,0,0,0,2.168.72M5.477,6.575A1.584,1.584,0,0,0,3.947,4.924,1.6,1.6,0,0,0,2.389,6.606,1.612,1.612,0,0,0,3.927,8.261a1.6,1.6,0,0,0,1.55-1.686m2.408.008A1.621,1.621,0,0,0,9.4,8.261,1.61,1.61,0,0,0,10.979,6.6,1.606,1.606,0,0,0,9.41,4.926,1.6,1.6,0,0,0,7.885,6.583" transform="translate(2.039 0.677)"/></g><g transform="translate(7.558 8.117)"><path class="d" d="M.584.152A2.723,2.723,0,0,1-.549.538,3.908,3.908,0,0,1,.58-.143Z" transform="translate(0.549 0.143)"/></g><g transform="translate(17.819 8.316)"><path class="d" d="M0,0A1.27,1.27,0,0,1,.927.619C.617.479.306.338,0,.2Z" transform="translate(0.004)"/></g></g><g transform="translate(19.478 23.911)"><path class="c" d="M0,.059.062,0,0-.055Z" transform="translate(0 0.055)"/></g><g class="e" transform="translate(0.001)"><g transform="translate(8.912 12.62)"><path class="b" d="M1.59.851A1.6,1.6,0,0,1,.04,2.537,1.612,1.612,0,0,1-1.495.882,1.6,1.6,0,0,1,.063-.8,1.583,1.583,0,0,1,1.59.851" transform="translate(1.495 0.8)"/></g><g transform="translate(14.406 12.622)"><path class="b" d="M0,.854A1.6,1.6,0,0,1,1.525-.8,1.608,1.608,0,0,1,3.094.871,1.61,1.61,0,0,1,1.511,2.532,1.62,1.62,0,0,1,0,.854" transform="translate(0 0.803)"/></g></g></svg>