<svg xmlns="http://www.w3.org/2000/svg" xmlns:xlink="http://www.w3.org/1999/xlink" viewBox="0 0 415.419 263.784"><defs><style>.a{fill:url(#a);}.b{fill:url(#b);}.c{fill:url(#c);}.d{fill:url(#d);}.e{fill:url(#e);}.f{fill:url(#f);}.g{fill:url(#g);}.h{fill:url(#h);}.i{fill:url(#i);}.j{fill:url(#j);}.k{fill:url(#k);}.l{fill:url(#l);}.m{fill:url(#m);}.n{fill:url(#n);}.o{fill:url(#o);}.p{fill:url(#p);}.q{fill:url(#q);}.r{fill:url(#r);}.s{fill:url(#s);}.t{fill:url(#t);}.u{fill:url(#u);}.v{fill:url(#v);}.w{fill:url(#w);}.x{opacity:0.3;}.y{fill:url(#x);}.z{fill:url(#z);}.aa{fill:url(#aa);}.ab{fill:url(#ab);}.ac{fill:url(#ac);}.ad{fill:url(#ad);}.ae{fill:url(#ae);}.af{fill:url(#af);}.ag{fill:url(#ag);}.ah{fill:url(#ah);}.ai{fill:url(#ai);}.aj{fill:url(#aj);}.ak{fill:url(#ak);}</style><linearGradient id="a" x1="-0.397" y1="1.538" x2="1.095" y2="-0.134" gradientUnits="objectBoundingBox"><stop offset="0" stop-color="#73c4c6"/><stop offset="0.17" stop-color="#77c5c0"/><stop offset="0.392" stop-color="#84c7b0"/><stop offset="0.644" stop-color="#98cb95"/><stop offset="0.915" stop-color="#b5d16f"/><stop offset="1" stop-color="#bfd362"/></linearGradient><linearGradient id="b" x1="-3.776" y1="4.29" x2="5.142" y2="-3.621" xlink:href="#a"/><linearGradient id="c" x1="-7.02" y1="7.161" x2="6.56" y2="-4.885" xlink:href="#a"/><linearGradient id="d" x1="-7.692" y1="7.76" x2="5.887" y2="-4.285" xlink:href="#a"/><linearGradient id="e" x1="-8.365" y1="8.36" x2="5.215" y2="-3.685" xlink:href="#a"/><linearGradient id="f" x1="-9.049" y1="8.96" x2="4.531" y2="-3.086" xlink:href="#a"/><linearGradient id="g" x1="-9.721" y1="9.559" x2="3.858" y2="-2.486" xlink:href="#a"/><linearGradient id="h" x1="-6.436" y1="6.648" x2="7.144" y2="-5.397" xlink:href="#a"/><linearGradient id="i" x1="-7.109" y1="7.248" x2="6.471" y2="-4.798" xlink:href="#a"/><linearGradient id="j" x1="-7.781" y1="7.847" x2="5.798" y2="-4.198" xlink:href="#a"/><linearGradient id="k" x1="-8.465" y1="8.447" x2="5.114" y2="-3.598" xlink:href="#a"/><linearGradient id="l" x1="-9.138" y1="9.047" x2="4.442" y2="-2.999" xlink:href="#a"/><linearGradient id="m" x1="-5.82" y1="6.104" x2="7.759" y2="-5.942" xlink:href="#a"/><linearGradient id="n" x1="-6.493" y1="6.703" x2="7.087" y2="-5.342" xlink:href="#a"/><linearGradient id="o" x1="-7.165" y1="7.303" x2="6.414" y2="-4.742" xlink:href="#a"/><linearGradient id="p" x1="-7.849" y1="7.903" x2="5.73" y2="-4.143" xlink:href="#a"/><linearGradient id="q" x1="-0.069" y1="2.045" x2="1.251" y2="-1.925" xlink:href="#a"/><linearGradient id="r" x1="-0.175" y1="1.163" x2="1.123" y2="-0.11" xlink:href="#a"/><linearGradient id="s" x1="0.117" y1="0.812" x2="1.087" y2="0.022" xlink:href="#a"/><linearGradient id="t" x1="-1.172" y1="2.305" x2="2.461" y2="-1.114" xlink:href="#a"/><linearGradient id="u" x1="-1.025" y1="2.169" x2="2.608" y2="-1.251" xlink:href="#a"/><linearGradient id="v" x1="-0.324" y1="1.511" x2="3.309" y2="-1.909" xlink:href="#a"/><linearGradient id="w" x1="0.061" y1="0.857" x2="1.176" y2="-0.05" xlink:href="#a"/><linearGradient id="x" x1="0.145" y1="0.852" x2="0.853" y2="0.143" gradientUnits="objectBoundingBox"><stop offset="0" stop-color="#73c4c6"/><stop offset="0.166" stop-color="#78c5bf"/><stop offset="0.406" stop-color="#87c8ac"/><stop offset="0.692" stop-color="#9fcd8c"/><stop offset="1" stop-color="#bfd362"/></linearGradient><linearGradient id="z" x1="0.148" y1="0.854" x2="0.853" y2="0.148" xlink:href="#x"/><linearGradient id="aa" x1="0.142" y1="0.85" x2="0.846" y2="0.146" xlink:href="#x"/><linearGradient id="ab" x1="0.147" y1="0.852" x2="0.853" y2="0.146" xlink:href="#x"/><linearGradient id="ac" x1="0.147" y1="0.851" x2="0.854" y2="0.144" xlink:href="#x"/><linearGradient id="ad" x1="0.145" y1="0.856" x2="0.853" y2="0.148" xlink:href="#x"/><linearGradient id="ae" x1="0.144" y1="0.852" x2="0.852" y2="0.144" xlink:href="#x"/><linearGradient id="af" x1="0.23" y1="0.751" x2="0.767" y2="0.249" xlink:href="#x"/><linearGradient id="ag" x1="0.232" y1="0.75" x2="0.77" y2="0.251" xlink:href="#x"/><linearGradient id="ah" x1="0.23" y1="0.751" x2="0.768" y2="0.252" xlink:href="#x"/><linearGradient id="ai" x1="0.229" y1="0.75" x2="0.768" y2="0.251" xlink:href="#x"/><linearGradient id="aj" x1="0.23" y1="0.75" x2="0.768" y2="0.25" xlink:href="#x"/><linearGradient id="ak" x1="0.231" y1="0.75" x2="0.769" y2="0.251" xlink:href="#x"/></defs><g transform="translate(23.856 63.341)"><g transform="translate(249.388 5.347)"><path class="a" d="M204.373,137.023h99.673a5.061,5.061,0,0,0,5.073-5.073V59.971a3.63,3.63,0,0,0-3.565-3.565H280.19c-.548-3.7-2.6-6.307-5.21-6.307-2.742,0-4.8,2.468-5.347,6.17-.548-3.565-2.6-6.17-5.21-6.17-2.742,0-4.8,2.468-5.347,6.17-.548-3.565-2.6-6.17-5.21-6.17-2.742,0-4.8,2.468-5.347,6.17-.548-3.565-2.6-6.17-5.21-6.17-2.742,0-4.8,2.468-5.347,6.17-.548-3.565-2.6-6.17-5.21-6.17-2.742,0-4.8,2.6-5.347,6.307H202.865a3.63,3.63,0,0,0-3.565,3.565V131.95A5.15,5.15,0,0,0,204.373,137.023Zm99.673-4.113H204.373a.937.937,0,0,1-.96-.96V80.4H304.869v51.687C305.006,132.5,304.594,132.91,304.046,132.91Zm-29.2-78.559a3.348,3.348,0,0,1,1.1,2.194h-2.194C274.021,55.036,274.569,54.35,274.843,54.35Zm-10.557,0a3.349,3.349,0,0,1,1.1,2.194H263.19C263.464,55.036,264.149,54.35,264.286,54.35Zm-10.557,0a3.349,3.349,0,0,1,1.1,2.194h-2.194C252.907,55.036,253.592,54.35,253.73,54.35Zm-10.557,0a3.349,3.349,0,0,1,1.1,2.194h-2.194C242.35,55.036,243.036,54.35,243.173,54.35Zm-10.42,0a3.349,3.349,0,0,1,1.1,2.194h-2.194C231.793,55.036,232.479,54.35,232.753,54.35Zm1.1,6.307a3.285,3.285,0,0,1-1.1,2.057,2.057,2.057,0,0,0,0,4.113c2.6,0,4.661-2.468,5.21-6.17h6.307a3.285,3.285,0,0,1-1.1,2.057,2.057,2.057,0,1,0,0,4.113c2.6,0,4.661-2.468,5.21-6.17h6.307a3.285,3.285,0,0,1-1.1,2.057,2.057,2.057,0,0,0,0,4.113c2.6,0,4.661-2.468,5.21-6.17h6.307a3.285,3.285,0,0,1-1.1,2.057,2.057,2.057,0,1,0,0,4.113c2.6,0,4.661-2.468,5.21-6.17h6.307a3.285,3.285,0,0,1-1.1,2.057,2.057,2.057,0,0,0,0,4.113c2.6,0,4.661-2.468,5.21-6.17H303.5a.937.937,0,0,1,.96.96v14.67H203V61.479a.937.937,0,0,1,.96-.96H233.85Z" transform="translate(-199.3 -50.1)"/></g><g transform="translate(257.615 40.445)"><path class="b" d="M214.486,75.7a9.186,9.186,0,1,0,9.186,9.186A9.186,9.186,0,0,0,214.486,75.7Zm0,14.122a5.061,5.061,0,0,1-5.073-5.073,5.073,5.073,0,0,1,10.146,0A5.061,5.061,0,0,1,214.486,89.822Z" transform="translate(-205.3 -75.7)"/></g><g transform="translate(279.414 40.171)"><path class="c" d="M227.233,75.5a6.032,6.032,0,1,0,6.032,6.032A6.086,6.086,0,0,0,227.233,75.5Zm0,7.815a1.919,1.919,0,1,1,1.919-1.919A1.961,1.961,0,0,1,227.233,83.315Z" transform="translate(-221.2 -75.5)"/></g><g transform="translate(293.947 40.171)"><path class="d" d="M237.833,75.5a6.032,6.032,0,1,0,6.033,6.032A6.086,6.086,0,0,0,237.833,75.5Zm0,7.815a1.919,1.919,0,1,1,1.919-1.919A1.961,1.961,0,0,1,237.833,83.315Z" transform="translate(-231.8 -75.5)"/></g><g transform="translate(308.479 40.171)"><path class="e" d="M248.433,75.5a6.032,6.032,0,1,0,6.033,6.032A6.086,6.086,0,0,0,248.433,75.5Zm0,7.815a1.919,1.919,0,1,1,1.919-1.919A1.874,1.874,0,0,1,248.433,83.315Z" transform="translate(-242.4 -75.5)"/></g><g transform="translate(323.149 40.171)"><path class="f" d="M259.132,75.5a6.032,6.032,0,1,0,6.032,6.032A6.086,6.086,0,0,0,259.132,75.5Zm0,7.815a1.919,1.919,0,1,1,1.919-1.919A1.961,1.961,0,0,1,259.132,83.315Z" transform="translate(-253.1 -75.5)"/></g><g transform="translate(337.682 40.171)"><path class="g" d="M269.733,75.5a6.032,6.032,0,1,0,6.033,6.032A6.086,6.086,0,0,0,269.733,75.5Zm0,7.815a1.919,1.919,0,1,1,1.919-1.919A1.961,1.961,0,0,1,269.733,83.315Z" transform="translate(-263.7 -75.5)"/></g><g transform="translate(279.414 54.292)"><path class="h" d="M227.233,85.8a6.032,6.032,0,1,0,6.032,6.032A6.086,6.086,0,0,0,227.233,85.8Zm0,7.952a1.919,1.919,0,1,1,1.919-1.919A1.961,1.961,0,0,1,227.233,93.752Z" transform="translate(-221.2 -85.8)"/></g><g transform="translate(293.947 54.292)"><path class="i" d="M237.833,85.8a6.032,6.032,0,1,0,6.033,6.032A6.086,6.086,0,0,0,237.833,85.8Zm0,7.952a1.919,1.919,0,1,1,1.919-1.919A1.961,1.961,0,0,1,237.833,93.752Z" transform="translate(-231.8 -85.8)"/></g><g transform="translate(308.479 54.292)"><path class="j" d="M248.433,85.8a6.032,6.032,0,1,0,6.033,6.032A6.086,6.086,0,0,0,248.433,85.8Zm0,7.952a1.919,1.919,0,1,1,1.919-1.919A1.874,1.874,0,0,1,248.433,93.752Z" transform="translate(-242.4 -85.8)"/></g><g transform="translate(323.149 54.292)"><path class="k" d="M259.132,85.8a6.032,6.032,0,1,0,6.032,6.032A6.086,6.086,0,0,0,259.132,85.8Zm0,7.952a1.919,1.919,0,1,1,1.919-1.919A1.961,1.961,0,0,1,259.132,93.752Z" transform="translate(-253.1 -85.8)"/></g><g transform="translate(337.682 54.292)"><path class="l" d="M269.733,85.8a6.032,6.032,0,1,0,6.033,6.032A6.086,6.086,0,0,0,269.733,85.8Zm0,7.952a1.919,1.919,0,1,1,1.919-1.919A1.961,1.961,0,0,1,269.733,93.752Z" transform="translate(-263.7 -85.8)"/></g><g transform="translate(279.414 69.237)"><path class="m" d="M227.233,96.7a6.032,6.032,0,1,0,6.032,6.032A6.086,6.086,0,0,0,227.233,96.7Zm0,7.952a1.919,1.919,0,1,1,1.919-1.919A1.961,1.961,0,0,1,227.233,104.652Z" transform="translate(-221.2 -96.7)"/></g><g transform="translate(293.947 69.237)"><path class="n" d="M237.833,96.7a6.032,6.032,0,1,0,6.033,6.032A6.086,6.086,0,0,0,237.833,96.7Zm0,7.952a1.919,1.919,0,1,1,1.919-1.919A1.961,1.961,0,0,1,237.833,104.652Z" transform="translate(-231.8 -96.7)"/></g><g transform="translate(308.479 69.237)"><path class="o" d="M248.433,96.7a6.032,6.032,0,1,0,6.033,6.032A6.086,6.086,0,0,0,248.433,96.7Zm0,7.952a1.919,1.919,0,1,1,1.919-1.919A1.874,1.874,0,0,1,248.433,104.652Z" transform="translate(-242.4 -96.7)"/></g><g transform="translate(323.149 69.237)"><path class="p" d="M259.132,96.7a6.032,6.032,0,1,0,6.032,6.032A6.086,6.086,0,0,0,259.132,96.7Zm0,7.952a1.919,1.919,0,1,1,1.919-1.919A1.961,1.961,0,0,1,259.132,104.652Z" transform="translate(-253.1 -96.7)"/></g><g transform="translate(243.658 97.205)"><path class="q" d="M319.17,134.649l-1.234-10.557a6.164,6.164,0,0,0-5.758-5.484l-10.968-.686H300.8a5.855,5.855,0,0,0-5.073,2.742,5.624,5.624,0,0,0-.96,3.016,6.1,6.1,0,0,0,2.468,5.347,70.212,70.212,0,0,1-79.108.274,68.263,68.263,0,0,1-12.2-10.283A6,6,0,0,0,201.4,117.1a6.379,6.379,0,0,0-4.25,1.645,7.836,7.836,0,0,0-.96,1.1,6.046,6.046,0,0,0,.686,7.678,76.4,76.4,0,0,0,14.4,12.065,82.589,82.589,0,0,0,95.834-2.468,6.169,6.169,0,0,0,5.9,4.524h.686a5.543,5.543,0,0,0,4.113-2.331A6.475,6.475,0,0,0,319.17,134.649Zm-5.9,2.742H313a2.19,2.19,0,0,1-2.057-1.782l-.685-6.581A79.266,79.266,0,0,1,199.891,124.5a2.088,2.088,0,0,1-.274-2.468c.137-.137.137-.274.274-.411a1.964,1.964,0,0,1,1.371-.548,2.2,2.2,0,0,1,1.508.686,74.938,74.938,0,0,0,54.567,23.719,74.286,74.286,0,0,0,49.494-18.92l-6.17-.411a2.216,2.216,0,0,1-1.919-2.194,1.981,1.981,0,0,1,.274-.96,2.091,2.091,0,0,1,1.645-.96h.137l10.968.686a2.047,2.047,0,0,1,1.919,1.782l1.234,10.557A1.876,1.876,0,0,1,313.274,137.391Z" transform="translate(-195.121 -117.1)"/></g><g transform="translate(163.837 41.542)"><path class="r" d="M187.491,97.477H169.8V79.79a3.336,3.336,0,0,0-3.29-3.29h-5.347a3.336,3.336,0,0,0-3.29,3.29V97.477H140.19a3.336,3.336,0,0,0-3.29,3.29v5.347a3.336,3.336,0,0,0,3.29,3.29h17.686v17.686a3.336,3.336,0,0,0,3.29,3.29h5.347a3.336,3.336,0,0,0,3.29-3.29V109.4h17.686a3.336,3.336,0,0,0,3.29-3.29v-5.347A3.248,3.248,0,0,0,187.491,97.477Zm-.823,7.952H168.982a3.336,3.336,0,0,0-3.29,3.29v17.686h-3.7V108.719a3.336,3.336,0,0,0-3.29-3.29H141.013v-3.7H158.7a3.336,3.336,0,0,0,3.29-3.29V80.613h3.7V98.3a3.336,3.336,0,0,0,3.29,3.29h17.686Z" transform="translate(-136.9 -76.5)"/></g><path class="s" d="M85.951,46.2A68.551,68.551,0,1,0,154.5,114.751,68.576,68.576,0,0,0,85.951,46.2Zm0,132.989a64.438,64.438,0,1,1,64.438-64.438A64.539,64.539,0,0,1,85.951,179.189Z" transform="translate(-17.4 -46.2)"/><g transform="translate(50.316 27.695)"><path class="t" d="M72.335,66.4,54.1,98.071H90.706Zm0,8.226L83.44,93.958H61.229Z" transform="translate(-54.1 -66.4)"/></g><g transform="translate(71.567 64.712)"><path class="u" d="M69.6,125.071h36.606L87.835,93.4Zm7.129-4.113,11.105-19.331L98.94,120.958Z" transform="translate(-69.6 -93.4)"/></g><g transform="translate(28.929 64.712)"><path class="v" d="M38.5,125.071H75.106L56.872,93.4Zm7.129-4.113,11.105-19.331L67.84,120.958Z" transform="translate(-38.5 -93.4)"/></g><g transform="translate(8.8 8.938)"><path class="w" d="M95.36,53.927A59.665,59.665,0,0,0,71.642,170.875a58.418,58.418,0,0,0,11.791,1.234A59.7,59.7,0,0,0,95.36,53.927ZM138,123.3A55.524,55.524,0,1,1,83.569,56.806a59.5,59.5,0,0,1,10.968,1.1A55.574,55.574,0,0,1,138,123.3Z" transform="translate(-23.819 -52.719)"/></g></g><g class="x"><g transform="translate(150.812 58.954)"><circle class="y" cx="7.541" cy="7.541" r="7.541"/></g><g transform="translate(374.288 30.162)"><circle class="y" cx="7.541" cy="7.541" r="7.541"/></g><g transform="translate(239.38 214.427)"><circle class="z" cx="10.283" cy="10.283" r="10.283"/></g><g transform="translate(351.804 1.645)"><circle class="aa" cx="4.799" cy="4.799" r="4.799"/></g><g transform="translate(46.615)"><circle class="ab" cx="10.283" cy="10.283" r="10.283"/></g><g transform="translate(29.477 198.249)"><circle class="ac" cx="7.952" cy="7.952" r="7.952"/></g><g transform="translate(286.132 2.194)"><circle class="ad" cx="14.807" cy="14.807" r="14.807"/></g><g transform="translate(176.999 180.152)"><circle class="ae" cx="14.807" cy="14.807" r="14.807"/></g><g transform="translate(143.409 4.113)"><path class="af" d="M122.012,14.242,117.9,3l-4.113,11.242L104.6,17.4l9.186,3.016L117.9,31.654l4.113-11.242,9.323-3.016Z" transform="translate(-104.6 -3)"/></g><g transform="translate(388.684 124.763)"><path class="ag" d="M301.049,102.379,296.936,91l-4.113,11.379L283.5,105.4l9.323,3.153,4.113,11.242,4.113-11.242,9.186-3.153Z" transform="translate(-283.5 -91)"/></g><g transform="translate(0 63.615)"><path class="ah" d="M17.412,57.779,13.3,46.4,9.186,57.779,0,60.8l9.186,3.153L13.3,75.191l4.113-11.242L26.735,60.8Z" transform="translate(0 -46.4)"/></g><g transform="translate(321.367 214.29)"><path class="ai" d="M257.707,171.518,252.223,156.3l-5.484,15.218L234.4,175.631l12.339,4.113,5.484,15.218,5.484-15.218,12.476-4.113Z" transform="translate(-234.4 -156.3)"/></g><g transform="translate(194.959 17.823)"><path class="aj" d="M165.507,28.081,160.023,13l-5.484,15.081L142.2,32.331l12.339,4.113,5.484,15.081,5.484-15.081,12.476-4.113Z" transform="translate(-142.2 -13)"/></g><g transform="translate(84.044 213.879)"><path class="ak" d="M91.6,175.606,84.47,156l-7.129,19.606L61.3,180.953,77.341,186.3l7.129,19.606L91.6,186.3l16.041-5.347Z" transform="translate(-61.3 -156)"/></g></g></svg>