<svg xmlns="http://www.w3.org/2000/svg" xmlns:xlink="http://www.w3.org/1999/xlink" viewBox="0 0 30 30"><defs><style>.a{fill:none;}.b{clip-path:url(#a);}.c{fill:url(#b);}.d{clip-path:url(#c);}.e{fill:#b6dae8;}.f{fill:#96cada;}.g{fill:#e8f6fa;}.h{fill:#f3fbfc;}.i{fill:#f0f9fd;}.j{fill:#fff;}</style><clipPath id="a"><path class="a" d="M0-.388a15,15,0,0,0,15,15h0a15,15,0,0,0,15-15h0a15,15,0,0,0-15-15h0a15,15,0,0,0-15,15" transform="translate(0 15.389)"/></clipPath><linearGradient id="b" x1="0.128" y1="2.364" x2="0.854" y2="2.364" gradientUnits="objectBoundingBox"><stop offset="0" stop-color="#2fa1cc"/><stop offset="0.1" stop-color="#30a3cf"/><stop offset="0.2" stop-color="#32a5d1"/><stop offset="0.3" stop-color="#33a7d3"/><stop offset="0.4" stop-color="#34aad6"/><stop offset="0.5" stop-color="#36acd8"/><stop offset="0.6" stop-color="#37aeda"/><stop offset="0.7" stop-color="#38b1dd"/><stop offset="0.8" stop-color="#3ab3df"/><stop offset="0.9" stop-color="#3bb6e2"/><stop offset="1" stop-color="#3cb8e4"/></linearGradient><clipPath id="c"><path class="a" d="M0,14.611H30v-30H0Z" transform="translate(0 15.389)"/></clipPath></defs><g class="b"><g transform="matrix(0.54, -0.842, 0.842, 0.54, -13.638, 21.245)"><path class="c" d="M25.245,0,41.452,25.245,16.207,41.452,0,16.207Z" transform="translate(0 0)"/></g></g><g class="d"><g transform="translate(11.111 10.639)"><path class="e" d="M.946,4.347c.019-.267.041-.53.058-.8l.014-.238c.019-.179.012-.361.037-.538.031-.253.047-.5.058-.758l.014-.051L1.5,1.619l.365-.337L2.238.949c.183-.175.384-.328.571-.5L3.172.124q.439-.4.879-.791l.5-.448c.246-.222.5-.441.741-.669s.487-.419.721-.641c.3-.285.618-.561.928-.838.2-.185.407-.37.612-.552s.384-.345.575-.517L8.2-4.443l-.062-.135-.365.037-.45.265c-.61.38-1.216.766-1.823,1.148-.2.129-.405.269-.614.388C4.3-2.4,3.741-2.026,3.17-1.667S2.063-.956,1.5-.619C.743-.164.006.319-.745.783L-1,.927-.967,1c.111.368.224.737.333,1.105.068.22.133.441.2.661l.016.033c.105.368.224.731.328,1.1.154.548.331,1.09.5,1.636l.31.238.142,0c.012-.294.033-.591.057-.887.016-.177.021-.357.033-.536" transform="translate(0.996 4.578)"/></g><g transform="translate(12.963 17.182)"><path class="f" d="M.827.514h0C.613.371.41.208.2.057L-.015-.1C-.214-.245-.4-.41-.6-.541l-.014.049c-.012.253-.027.507-.06.76C-.7.445-.69.627-.709.8l-.014.238-.058.8c-.012.177-.018.357-.033.536-.023.294-.045.593-.057.887l.48-.136.329-.281c.209-.191.4-.4.616-.591.195-.211.407-.4.612-.6.172-.17.341-.339.521-.5C1.41.952,1.131.746.854.539Z" transform="translate(0.871 0.541)"/></g><g transform="translate(6.835 8.163)"><path class="g" d="M7.945.31a.686.686,0,0,0-.79-.63L6.7-.169c-.328.123-.655.25-.983.372L5.691.219C5.177.408,4.672.626,4.153.8c-.279.092-.548.209-.821.314s-.546.209-.819.31l-.5.2c-.665.25-1.318.522-1.99.754-.308.107-.61.234-.916.351-.238.094-.474.2-.717.279l-.049.023c-.805.3-1.6.634-2.41.914-.314.111-.622.24-.934.359s-.649.25-.973.372c-.382.148-.762.3-1.144.446a6.106,6.106,0,0,0-.8.335l-.372.294a.363.363,0,0,0,.07.517l.366.2c.365.127.737.222,1.1.357.253.1.515.164.772.244q.947.3,1.891.593l.251-.146c.751-.464,1.487-.947,2.242-1.4.567-.337,1.115-.7,1.673-1.049S1.2,4.328,1.788,3.989C2,3.868,2.2,3.73,2.4,3.6c.608-.382,1.213-.766,1.823-1.146l.45-.265.366-.039.06.136-.076.109-.575.517c-.2.183-.407.366-.61.552-.312.279-.626.554-.93.84-.234.22-.485.423-.721.641s-.5.444-.741.669l-.5.446c-.292.265-.587.528-.879.791l-.363.328c-.185.17-.388.322-.571.5l-.372.333-.365.337.363-.142c.218-.092.439-.183.653-.285C-.21,7.744.18,7.6.554,7.432c.405-.185.821-.355,1.23-.534.331-.144.663-.292,1-.437.308-.135.614-.277.928-.4.46-.183.908-.392,1.361-.587C5.481,5.3,5.89,5.118,6.3,4.94l.741-.326L7.118,4.6l.076-.318,0-.035q.146-.687.3-1.374.17-.8.339-1.6l.045-.212A1.913,1.913,0,0,0,7.945.31" transform="translate(8.368 0.327)"/></g><g transform="translate(14.662 15.074)"><path class="h" d="M2.834.3C2.45.459,2.062.617,1.678.788c-.409.183-.821.357-1.232.534l-1.144.5c-.22.1-.437.2-.659.285-.5.193-.986.421-1.48.636l-.111.047-.037.058.025.023c.279.209.556.413.834.62l.072.051.936.686.193-.115c.314-.14.628-.285.947-.413.277-.113.55-.236.823-.355l.791-.341Q2.2,2.76,2.77,2.516l.864-.378.078.021.014-.041c.1-.433.189-.868.283-1.3.039-.191.08-.38.117-.569s.088-.37.113-.559l-.3.123C3.575-.021,3.2.137,2.834.3" transform="translate(2.985 0.311)"/></g><g transform="translate(13.233 13.091)"><path class="i" d="M4.389.007,3.649.332C3.237.51,2.828.689,2.416.864c-.452.195-.9.4-1.361.587-.314.125-.62.267-.93.4-.331.144-.663.292-.994.437-.409.179-.825.349-1.23.534-.376.172-.764.31-1.135.487-.216.1-.435.193-.653.285l-.363.142-.374.347c.2.131.386.3.587.435l.214.162c.211.152.411.316.626.458l.039-.057.111-.049c.491-.212.977-.441,1.478-.636.224-.088.441-.189.661-.285l1.144-.5c.411-.179.823-.353,1.232-.536.382-.172.77-.329,1.156-.493C3,2.424,3.366,2.266,3.73,2.1l.3-.121.094-.368c.053-.232.1-.466.148-.7l.08-.363c.039-.183.08-.368.117-.554Z" transform="translate(4.623 0.007)"/></g><g transform="translate(16.527 17.523)"><path class="j" d="M2.315,0c-.287.123-.575.251-.864.376Q.884.622.319.869l-.791.343c-.273.119-.546.242-.825.355-.32.129-.632.271-.945.413l-.195.113.405.31c.745.559,1.5,1.111,2.244,1.665l.474.218a.691.691,0,0,0,.848-.4l.123-.351,0-.037c.088-.407.174-.815.261-1.222l.1-.441,0-.037q.108-.509.216-1.02c.053-.253.105-.507.156-.762Z" transform="translate(2.438)"/></g></g></svg>