<svg xmlns="http://www.w3.org/2000/svg" xmlns:xlink="http://www.w3.org/1999/xlink" viewBox="0 0 30 29.998"><defs><style>.a{fill:none;}.b{clip-path:url(#a);}.c{fill:#36b7e7;}.d{fill:#fff;}</style><clipPath id="a"><path class="a" d="M0,14.61H30v-30H0Z" transform="translate(0 15.388)"/></clipPath></defs><g transform="translate(-1478 -76)"><g transform="translate(1478 76)"><g class="b"><g transform="translate(-0.001 0)"><path class="c" d="M14.611,7.324A15,15,0,0,1-.429,22.284a15,15,0,0,1-14.96-15.04A15,15,0,0,1-.349-7.714,15,15,0,0,1,14.611,7.324" transform="translate(15.389 7.714)"/></g><g transform="translate(7.58 8.954)"><path class="d" d="M4.911.006,4.776.019a3.411,3.411,0,0,0-.558.115,2.877,2.877,0,0,0-.647.289L3.146.729l-.384.384a2.943,2.943,0,0,0-.409.653,3.144,3.144,0,0,0-.285,1.115V3.2l.01.127.055.366-.023.051L1.93,3.735,1.573,3.7l-.384-.055L.86,3.579.481,3.493l-.489-.14L-.5,3.189c-.2-.074-.39-.158-.579-.248s-.376-.179-.554-.283c-.232-.133-.46-.269-.678-.421a9.407,9.407,0,0,1-.868-.676l-.452-.429L-3.794.947-4.086.616-4.2.62l-.012.021a2.952,2.952,0,0,0-.24.606,3.136,3.136,0,0,0-.113.684v.277l.018.232a3.041,3.041,0,0,0,.14.62,3.06,3.06,0,0,0,.294.62,3.023,3.023,0,0,0,.641.741l.246.193-.427-.041a2.907,2.907,0,0,1-.6-.175l-.324-.154-.029,0,.01.185.008.109a3.742,3.742,0,0,0,.117.606,2.947,2.947,0,0,0,.363.788,2.971,2.971,0,0,0,.482.569l.444.347.351.191.324.129.335.1a2.219,2.219,0,0,1-.618.1l-.349,0-.328-.035-.047.06.211.468a2.985,2.985,0,0,0,.421.587,3.118,3.118,0,0,0,.762.608,3.157,3.157,0,0,0,.729.294A3.7,3.7,0,0,0-.7,9.457,6.158,6.158,0,0,1-5.172,10.71l0,.012.513.306a6.368,6.368,0,0,0,.6.3l.365.154c.2.08.409.154.62.216.174.051.349.105.526.146a8.168,8.168,0,0,0,.971.175,7.437,7.437,0,0,0,.751.058l.045.008.5,0,.045-.01c.234,0,.466-.021.7-.043a6.644,6.644,0,0,0,.708-.1,8.65,8.65,0,0,0,1.413-.382c.271-.1.538-.214.8-.339l.443-.24a7.439,7.439,0,0,0,1.092-.745A8.292,8.292,0,0,0,5.9,9.3a8.951,8.951,0,0,0,.682-.871A8.9,8.9,0,0,0,7.4,6.963a8.94,8.94,0,0,0,.521-1.5A8.412,8.412,0,0,0,8.106,4.5a7.655,7.655,0,0,0,.07-.846l.01-.062,0-.337-.01-.111V3.1l.068-.135.236-.179a7.41,7.41,0,0,0,.69-.665,7,7,0,0,0,.482-.612l.01-.029-.037,0-.172.068a5.332,5.332,0,0,1-.522.181,7.246,7.246,0,0,1-.846.179l-.127,0,.018-.014A2.941,2.941,0,0,0,8.683,1.3,3.007,3.007,0,0,0,9.262.314L9.269.261,9.217.281,8.8.5c-.2.094-.405.172-.61.248a7.245,7.245,0,0,1-.774.216L7.338.955,7.156.784,6.842.534A2.877,2.877,0,0,0,6.316.245L5.944.115a3.575,3.575,0,0,0-.6-.109L5.144-.006Z" transform="translate(5.172 0.006)"/></g><g transform="translate(7.582 8.966)"><path class="d" d="M2.117,5.879c-.251,0-.5-.031-.751-.058A8.582,8.582,0,0,1,.4,5.645C.219,5.6.045,5.55-.128,5.5-.341,5.434-.546,5.36-.75,5.28l-.363-.154a6.385,6.385,0,0,1-.6-.3l-.513-.306,0-.012A6.146,6.146,0,0,0,2.242,3.257a3.539,3.539,0,0,1-.688-.107,3.163,3.163,0,0,1-.729-.3,3.147,3.147,0,0,1-.762-.606A3.043,3.043,0,0,1-.359,1.66l-.211-.468.047-.062.328.037.037.014.277,0,.035-.014a2.236,2.236,0,0,0,.62-.1L.439.972.115.845-.238.652-.682.307a3.118,3.118,0,0,1-.482-.569,2.926,2.926,0,0,1-.361-.79,3.723,3.723,0,0,1-.119-.6l-.008-.109,0-.088.018-.1.324.156a2.8,2.8,0,0,0,.6.174l.427.043-.246-.195a2.961,2.961,0,0,1-.643-.741,3.045,3.045,0,0,1-.294-.618,2.94,2.94,0,0,1-.138-.62l-.019-.232v-.277A3.176,3.176,0,0,1-1.5-4.952a2.936,2.936,0,0,1,.24-.6l.012-.021.107,0,.294.331.168.185.45.427a9.334,9.334,0,0,0,.868.676c.22.152.448.29.678.423.179.1.365.193.554.281s.382.173.579.248l.487.164.489.142.378.086.329.062.384.053.357.041.181.012L5.075-2.5l-.057-.365L5.008-3v-.322a3.369,3.369,0,0,1,.1-.589,3.58,3.58,0,0,1,.189-.524A3.024,3.024,0,0,1,5.7-5.085l.382-.384.425-.308a2.91,2.91,0,0,1,.647-.287,3.683,3.683,0,0,1,.558-.117l.135-.012h.429a3.593,3.593,0,0,1,.606.107l.37.133a2.831,2.831,0,0,1,.528.289l.314.25.181.172.082.006a7.844,7.844,0,0,0,.772-.216c.2-.078.411-.156.61-.248l.413-.218.055-.019-.008.055a3.053,3.053,0,0,1-.581.988,2.924,2.924,0,0,1-.7.591l-.018.014.125,0a6.554,6.554,0,0,0,.848-.179,4.68,4.68,0,0,0,.52-.179l.172-.068h.039l-.012.031a6.577,6.577,0,0,1-.482.612,6.928,6.928,0,0,1-.69.663l-.236.179-.068.136v.047l0,.511a7.177,7.177,0,0,1-.07.844,8.007,8.007,0,0,1-.185.959,9.13,9.13,0,0,1-.519,1.5A9.041,9.041,0,0,1,9.523,2.23a9.255,9.255,0,0,1-.684.869,8.309,8.309,0,0,1-.975.932,7.851,7.851,0,0,1-1.09.745l-.444.24a8.454,8.454,0,0,1-.8.337,8.6,8.6,0,0,1-1.413.384q-.351.067-.708.1c-.234.019-.464.043-.7.043Z" transform="translate(2.23 6.192)"/></g></g><g transform="translate(11.929 21.038)"><path class="d" d="M0,0,.045.008l.5,0L.595,0Z"/></g><g transform="translate(20.928 12.107)"><path class="d" d="M0,.248.01.187l0-.339L0-.261Z" transform="translate(0 0.261)"/></g><g transform="translate(17.663 8.955)"><path class="d" d="M0,0H.429L.236,0Z" transform="translate(0 0.005)"/></g><g transform="translate(9.618 16.326)"><path class="d" d="M.017.007l.277,0L.329-.005l-.347,0Z" transform="translate(0.018 0.007)"/></g><g transform="translate(14.82 11.84)"><path class="d" d="M0,.157v0Z" transform="translate(0 0.165)"/></g><g transform="translate(8.192 10.892)"><path class="d" d="M0,.135v0Z" transform="translate(0 0.142)"/></g><g transform="translate(8.151 13.204)"><path class="d" d="M0,0,.01.187.012.1.029,0Z" transform="translate(0 0.002)"/></g></g></g></svg>